# xmcd
#
# Track frame offsets: 
#        150
#        22246
#        31943
#        55294
#        82613
#        108292
#        113478
#        135426
#        160493
#        172174
#        194497
#        204122
#        228089
#
# Disc length: 3177 seconds
#
# Revision: 1
# Processed by: cddbd v1.5.2PL0 Copyright (c) Steve Scherf et al.
# Submitted via: ExactAudioCopyFreeDBPlugin 1.0
#
DISCID=9e0c670d
DTITLE=Hotel Bossa Nova - Desordem and Progresso
DYEAR=2014
DGENRE=Jazz
TTITLE0=Largo de Camões
TTITLE1=Manhã (The Morning)
TTITLE2=Estrada Amarela (Yellow Road)
TTITLE3=Não Dou (I Don't Belong Here)
TTITLE4=Caminhos (Different Paths)
TTITLE5=Abelão (Bumblebee)
TTITLE6=Despedidas (How to Say Goodbye)
TTITLE7=Nadía
TTITLE8=Momento
TTITLE9=Ceu Aberto (Open Sky)
TTITLE10=Adeus C.H.
TTITLE11=Seja Agora (It Is Now)
TTITLE12=Flor (Flower)
EXTD=YEAR: 2014
EXTT0=
EXTT1=
EXTT2=
EXTT3=
EXTT4=
EXTT5=
EXTT6=
EXTT7=
EXTT8=
EXTT9=
EXTT10=
EXTT11=
EXTT12=
PLAYORDER=
